<svg width="24" height="24" viewBox="0 0 24 24" fill="none" xmlns="http://www.w3.org/2000/svg">
<path d="M7.23871 11.7743C7.00536 11.4907 6.56964 11.436 6.26399 11.6521C6.17761 11.7155 6.10794 11.7965 6.06029 11.8888L0.07558 23.0358C-0.100925 23.3648 0.0422444 23.7647 0.395438 23.9292C0.494581 23.9759 0.604191 24 0.715295 23.9998H9.05348C9.32639 24.0063 9.57753 23.8617 9.6932 23.6314C11.4928 20.1707 10.4019 14.9091 7.23871 11.7743Z" fill="url(#paint0_linear_1_781)"/>
<path d="M11.1941 0.3819C8.15497 4.97313 7.80398 10.7965 10.2703 15.7075L14.2957 23.6111C14.417 23.8493 14.6649 24 14.9362 24H23.2836C23.4737 24.0004 23.6562 23.9265 23.7907 23.7945C23.9251 23.6625 24.0005 23.4833 24 23.2967C24 23.1877 23.9747 23.0801 23.9258 22.9823L12.4128 0.378591C12.3013 0.1474 12.064 0 11.8034 0C11.5429 0 11.3056 0.1474 11.1941 0.378591V0.3819Z" fill="#2684FF"/>
<defs>
<linearGradient id="paint0_linear_1_781" x1="6.22167" y1="9.74369" x2="-1.53047" y2="18.694" gradientUnits="userSpaceOnUse">
<stop stop-color="#0052CC"/>
<stop offset="0.92" stop-color="#2684FF"/>
</linearGradient>
</defs>
</svg>
