<svg width="16" height="18" viewBox="0 0 16 18" fill="none" xmlns="http://www.w3.org/2000/svg">
	<path fill-rule="evenodd" clip-rule="evenodd" d="M14.7456 10.6113C14.1943 10.0049 13.588 9.3159 13.588 7.99293V5.73286C13.588 2.6735 10.8869 0 7.8 0C4.71307 0 2.01201 2.70106 2.01201 5.78799V7.99293C2.01201 9.3159 1.40565 10.0049 0.854417 10.6113C0.413428 11.1074 0 11.576 0 12.2926C0 13.8085 3.14205 14.8283 7.8 14.8283C12.458 14.8283 15.6 13.8085 15.6 12.2926C15.6 11.6035 15.1866 11.1074 14.7456 10.6113Z" fill="url(#paint0_linear_1_501)" />
	<path fill-rule="evenodd" clip-rule="evenodd" d="M7.80001 15.3795C6.9456 15.3795 6.11874 15.3519 5.37457 15.2693C5.67775 16.3166 6.64242 17.0608 7.80001 17.0608C8.95761 17.0608 9.92228 16.289 10.2255 15.2693C9.48129 15.3519 8.65443 15.3795 7.80001 15.3795Z" fill="url(#paint1_linear_1_501)" />
	<defs>
		<linearGradient id="paint0_linear_1_501" x1="-7.8" y1="7.41413" x2="7.0092" y2="22.9941" gradientUnits="userSpaceOnUse">
			<stop stop-color="#98EC2D" />
			<stop offset="1" stop-color="#17AD37" />
		</linearGradient>
		<linearGradient id="paint1_linear_1_501" x1="2.94913" y1="16.165" x2="4.11359" y2="19.318" gradientUnits="userSpaceOnUse">
			<stop stop-color="#98EC2D" />
			<stop offset="1" stop-color="#17AD37" />
		</linearGradient>
	</defs>
</svg>
