<svg width="20" height="20" viewBox="0 0 20 20" fill="none" xmlns="http://www.w3.org/2000/svg">
<circle cx="3.33418" cy="18.3334" r="1.66658" fill="white"/>
<circle cx="16.6668" cy="18.3334" r="1.66658" fill="white"/>
<path d="M19.1667 13.3337H2.1826L3.01589 11.6671H15.8336C16.174 11.667 16.4802 11.4598 16.6068 11.1438L19.94 2.8109C20.0429 2.55419 20.0117 2.26315 19.8567 2.03406C19.7018 1.80498 19.4433 1.6677 19.1667 1.66763H2.8459L1.42431 0.244373C1.09848 -0.0814577 0.570204 -0.0814577 0.244373 0.244373C-0.0814577 0.570204 -0.0814577 1.09848 0.244373 1.42431L1.66763 2.8459V10.6372L0.0893813 13.7937C-0.0400571 14.052 -0.0264528 14.3589 0.125332 14.6047C0.277116 14.8506 0.545417 15.0003 0.834342 15.0003H19.1667C19.6269 15.0003 20 14.6272 20 14.167C20 13.7068 19.6269 13.3337 19.1667 13.3337Z" fill="white"/>
</svg>
