<svg width="17" height="19" viewBox="0 0 17 19"  xmlns="http://www.w3.org/2000/svg">
<path d="M3.4 14.1667V15.8667C3.4 16.4917 2.8917 17 2.26667 17C1.64163 17 1.13333 16.4917 1.13333 15.8667V1.13333H9.06667V0H0.566667C0.253867 0 0 0.253867 0 0.566667V15.8667C0 17.1167 1.0166 18.1333 2.26667 18.1333H14.1667C15.4167 18.1333 16.4333 17.1167 16.4333 15.8667V14.1667H3.4Z" />
<path d="M13.0333 9.06669C11.9856 9.06669 11.0109 8.74822 10.2 8.20422V12.8169L13.0333 11.4002L15.8667 12.8169V8.20422C15.0558 8.74822 14.0811 9.06669 13.0333 9.06669Z" />
<circle cx="13.0333" cy="3.96667" r="3.96667"/>
</svg>
