<svg width="24" height="24" viewBox="0 0 24 24" fill="none" xmlns="http://www.w3.org/2000/svg">
<path fill-rule="evenodd" clip-rule="evenodd" d="M6.62025 2.48225C6.61924 1.11256 7.72988 0.00101234 9.10221 0C10.4756 0.00202468 11.5872 1.11357 11.5862 2.48326V4.9645H9.10323C7.7309 4.96349 6.61924 3.85195 6.62025 2.48225ZM2.48298 6.62069H9.10221C10.4745 6.6217 11.5862 7.73325 11.5852 9.10395C11.5862 10.4736 10.4745 11.5852 9.10221 11.5862H2.48197C1.10964 11.5842 -0.00202028 10.4726 2.75682e-06 9.10294C-0.00100599 7.73325 1.11065 6.6217 2.48298 6.62069Z" fill="#36C5F0"/>
<path fill-rule="evenodd" clip-rule="evenodd" d="M17.3792 2.48225V9.10294C17.3802 10.4736 16.2684 11.5852 14.896 11.5862C13.5235 11.5842 12.4118 10.4726 12.4138 9.10294V2.48225C12.4128 1.11256 13.5245 0.00101234 14.897 0C16.2694 0.00202468 17.3802 1.11357 17.3792 2.48225ZM21.5168 6.62069C22.8892 6.6217 24.001 7.73325 24 9.10294C24.001 10.4736 22.8892 11.5852 21.5168 11.5862H19.0336V9.10294C19.0326 7.73325 20.1443 6.6217 21.5168 6.62069Z" fill="#2EB67D"/>
<path fill-rule="evenodd" clip-rule="evenodd" d="M21.517 17.3789H14.8968C13.5244 17.3779 12.4138 16.2664 12.4148 14.8958C12.4138 13.5263 13.5254 12.4148 14.8978 12.4138H21.518C22.8904 12.4158 24.002 13.5273 24 14.8968C24.001 16.2664 22.8893 17.3779 21.517 17.3789ZM17.3797 21.518C17.3808 22.8875 16.2691 23.999 14.8968 24C13.5244 23.998 12.4128 22.8865 12.4138 21.518V19.0359H14.8968C16.2691 19.0369 17.3808 20.1484 17.3797 21.518Z" fill="#ECB22E"/>
<path fill-rule="evenodd" clip-rule="evenodd" d="M2.48319 17.3783C1.11074 17.3773 -0.00101092 16.2657 6.89812e-07 14.896C-0.00101092 13.5263 1.11074 12.4148 2.48319 12.4138H4.96639V14.896C4.9674 16.2657 3.85564 17.3773 2.48319 17.3783ZM6.62082 21.5167V14.896C6.61982 13.5263 7.73056 12.4148 9.10402 12.4148C10.4765 12.4168 11.5882 13.5284 11.5862 14.8981V21.5177C11.5872 22.8874 10.4755 23.999 9.10301 24C7.73056 23.998 6.6188 22.8864 6.62082 21.5167Z" fill="#E01E5A"/>
</svg>
