<svg  viewBox="0 0 15 15"  xmlns="http://www.w3.org/2000/svg">
<path fill-rule="evenodd" clip-rule="evenodd" d="M14.3392 0.000833961C14.5176 -0.00836115 14.6915 0.0588205 14.8174 0.18558C14.9432 0.312164 15.0092 0.486255 14.999 0.664411C14.5001 9.43795 6.68984 12.7307 6.61129 12.7627C6.37716 12.8585 6.10847 12.8045 5.92949 12.6258L2.3747 9.07097C2.19686 8.89286 2.14246 8.62581 2.23646 8.39231C2.26788 8.31314 5.52418 0.460813 14.3392 0.000833961ZM8.31632 7.36416C8.78599 7.55866 9.32658 7.45107 9.68599 7.09155C10.1766 6.60078 10.1766 5.80525 9.68599 5.31448C9.32658 4.95496 8.78599 4.84737 8.31632 5.04187C7.84665 5.23637 7.54041 5.69466 7.54041 6.20301C7.54041 6.71137 7.84665 7.16966 8.31632 7.36416Z" />
<path d="M0.699395 11.7605C1.15035 11.3064 1.80966 11.1282 2.42797 11.2931C3.04629 11.458 3.52923 11.9409 3.69415 12.5593C3.85908 13.1776 3.68081 13.8369 3.22677 14.2878C2.52863 14.986 0 15.0004 0 15.0004C0 15.0004 0 12.458 0.699395 11.7605Z" />
<path opacity="0.59854" d="M6.50821 1.3902C4.71078 1.07736 2.87365 1.6598 1.5848 2.95111C1.24874 3.29029 0.95656 3.67029 0.71511 4.08221C0.569685 4.32914 0.609748 4.64318 0.81251 4.8457L2.06237 6.09619C3.22377 4.25302 4.73399 2.65443 6.50821 1.3902Z" />
<path opacity="0.59854" d="M13.6102 8.49222C13.9231 10.2896 13.3406 12.1268 12.0493 13.4156C11.7101 13.7517 11.3301 14.0439 10.9182 14.2853C10.6713 14.4307 10.3572 14.3907 10.1547 14.1879L8.90424 12.9381C10.7474 11.7767 12.346 10.2664 13.6102 8.49222Z" />
</svg>
