<svg width="20" height="20" viewBox="0 0 20 20" fill="none" xmlns="http://www.w3.org/2000/svg">
<path d="M16.5462 10.3832L15.2919 8.7844C15.2256 8.70186 15.1397 8.63737 15.0419 8.5969L13.2375 7.83315C13.1244 7.78587 13 7.77241 12.8794 7.7944L10.7444 8.1919C10.5303 8.23185 10.3525 8.38031 10.275 8.58378L9.535 10.53C9.48692 10.6562 9.481 10.7946 9.51812 10.9244L9.9725 12.5L9.25562 14.105C9.17996 14.2741 9.18317 14.468 9.26437 14.6344L10.1431 16.4375C10.2481 16.6524 10.4665 16.7885 10.7056 16.7882C10.7487 16.7884 10.7916 16.784 10.8337 16.775L12.4781 16.4319C12.5689 16.4137 12.6543 16.3752 12.7281 16.3194L13.99 15.3682C14.0235 15.3429 14.0543 15.3142 14.0819 15.2825L15.1181 14.1107L16.3119 12.8963C16.4097 12.7966 16.4713 12.667 16.4869 12.5282L16.6781 10.8407C16.6962 10.6767 16.6488 10.5123 16.5462 10.3832Z" fill="white"/>
<path fill-rule="evenodd" clip-rule="evenodd" d="M0 10C0 4.47715 4.47715 0 10 0C15.5201 0.00654351 19.9935 4.47987 20 10C20 15.5228 15.5228 20 10 20C4.47715 20 0 15.5228 0 10ZM4.57625 16.8531C6.11717 18.0814 8.02943 18.7502 10 18.75C13.2018 18.7575 16.1512 17.0127 17.6864 14.2029C19.2216 11.3931 19.0966 7.96853 17.3606 5.27812L16.4856 5.8325C16.3838 5.89805 16.2648 5.93198 16.1437 5.93L14.4888 5.91313L13.2506 6.40625C13.0564 6.48359 12.8364 6.45873 12.6644 6.34L11.4675 5.51438C11.3447 5.43003 11.256 5.30457 11.2175 5.16062L10.8556 3.7975L9.89313 2.78562L8.76813 1.98563C8.60881 1.87233 8.51168 1.69102 8.50562 1.49563L8.5025 1.38625C7.35961 1.58454 6.26797 2.00955 5.29187 2.63625L6.25 3.75L7.42688 5.22813C7.52364 5.34857 7.572 5.50079 7.5625 5.655L7.4475 7.65938C7.43075 7.94647 7.22026 8.18507 6.9375 8.2375L4.82188 8.62875L3.5825 10.0938L4.17375 11.3206L4.835 12.5031L6.4775 13.7769C6.73627 13.9769 6.79704 14.3426 6.61687 14.6156L5.47312 16.3506C5.40645 16.4513 5.31201 16.5306 5.20125 16.5788L4.57625 16.8531Z" fill="white"/>
</svg>
